<mxfile host="app.diagrams.net" modified="2024-03-20T10:52:46.754Z" agent="Mozilla/5.0 (Windows NT 10.0; Win64; x64) AppleWebKit/537.36 (KHTML, like Gecko) Chrome/121.0.0.0 Safari/537.36 OPR/107.0.0.0" etag="aLUjQAOuazFw3rk8dAW5" version="22.1.21" type="device">
  <diagram name="Pagina-1" id="xcAP3sUt3TdDTb0bLY-T">
    <mxGraphModel dx="1009" dy="1711" grid="1" gridSize="10" guides="1" tooltips="1" connect="1" arrows="1" fold="1" page="1" pageScale="1" pageWidth="827" pageHeight="1169" math="0" shadow="0">
      <root>
        <mxCell id="0" />
        <mxCell id="1" parent="0" />
        <mxCell id="9wTMnwCspc6h20GG8ygX-1" value="start/end" style="rounded=1;whiteSpace=wrap;html=1;" vertex="1" parent="1">
          <mxGeometry x="10" y="10" width="120" height="60" as="geometry" />
        </mxCell>
        <mxCell id="9wTMnwCspc6h20GG8ygX-2" value="funcionaliteit" style="rounded=0;whiteSpace=wrap;html=1;" vertex="1" parent="1">
          <mxGeometry x="10" y="100" width="120" height="60" as="geometry" />
        </mxCell>
        <mxCell id="9wTMnwCspc6h20GG8ygX-3" value="conditie" style="rhombus;whiteSpace=wrap;html=1;" vertex="1" parent="1">
          <mxGeometry x="30" y="260" width="80" height="80" as="geometry" />
        </mxCell>
        <mxCell id="9wTMnwCspc6h20GG8ygX-64" value="" style="edgeStyle=orthogonalEdgeStyle;rounded=0;orthogonalLoop=1;jettySize=auto;html=1;" edge="1" parent="1" source="9wTMnwCspc6h20GG8ygX-4" target="9wTMnwCspc6h20GG8ygX-63">
          <mxGeometry relative="1" as="geometry" />
        </mxCell>
        <mxCell id="9wTMnwCspc6h20GG8ygX-4" value="hoeveel spelers" style="shape=parallelogram;perimeter=parallelogramPerimeter;whiteSpace=wrap;html=1;fixedSize=1;" vertex="1" parent="1">
          <mxGeometry x="380" y="320" width="120" height="60" as="geometry" />
        </mxCell>
        <mxCell id="9wTMnwCspc6h20GG8ygX-5" value="goto" style="ellipse;whiteSpace=wrap;html=1;aspect=fixed;" vertex="1" parent="1">
          <mxGeometry x="30" y="390" width="80" height="80" as="geometry" />
        </mxCell>
        <mxCell id="9wTMnwCspc6h20GG8ygX-7" value="" style="endArrow=classic;html=1;rounded=0;" edge="1" parent="1">
          <mxGeometry width="50" height="50" relative="1" as="geometry">
            <mxPoint x="160" y="40" as="sourcePoint" />
            <mxPoint x="160" y="440" as="targetPoint" />
          </mxGeometry>
        </mxCell>
        <mxCell id="9wTMnwCspc6h20GG8ygX-23" value="" style="edgeStyle=orthogonalEdgeStyle;rounded=0;orthogonalLoop=1;jettySize=auto;html=1;" edge="1" parent="1" source="9wTMnwCspc6h20GG8ygX-8" target="9wTMnwCspc6h20GG8ygX-22">
          <mxGeometry relative="1" as="geometry" />
        </mxCell>
        <mxCell id="9wTMnwCspc6h20GG8ygX-8" value="start" style="rounded=1;whiteSpace=wrap;html=1;" vertex="1" parent="1">
          <mxGeometry x="380" y="20" width="120" height="60" as="geometry" />
        </mxCell>
        <mxCell id="9wTMnwCspc6h20GG8ygX-9" value="end" style="rounded=1;whiteSpace=wrap;html=1;" vertex="1" parent="1">
          <mxGeometry x="60" y="1040" width="120" height="60" as="geometry" />
        </mxCell>
        <mxCell id="9wTMnwCspc6h20GG8ygX-25" value="" style="edgeStyle=orthogonalEdgeStyle;rounded=0;orthogonalLoop=1;jettySize=auto;html=1;" edge="1" parent="1" source="9wTMnwCspc6h20GG8ygX-22" target="9wTMnwCspc6h20GG8ygX-24">
          <mxGeometry relative="1" as="geometry" />
        </mxCell>
        <mxCell id="9wTMnwCspc6h20GG8ygX-22" value="genereer kaarten" style="rounded=0;whiteSpace=wrap;html=1;" vertex="1" parent="1">
          <mxGeometry x="380" y="130" width="120" height="60" as="geometry" />
        </mxCell>
        <mxCell id="9wTMnwCspc6h20GG8ygX-26" value="" style="edgeStyle=orthogonalEdgeStyle;rounded=0;orthogonalLoop=1;jettySize=auto;html=1;" edge="1" parent="1" source="9wTMnwCspc6h20GG8ygX-24" target="9wTMnwCspc6h20GG8ygX-4">
          <mxGeometry relative="1" as="geometry" />
        </mxCell>
        <mxCell id="9wTMnwCspc6h20GG8ygX-24" value="kaarten schudden" style="rounded=0;whiteSpace=wrap;html=1;" vertex="1" parent="1">
          <mxGeometry x="380" y="240" width="120" height="60" as="geometry" />
        </mxCell>
        <mxCell id="9wTMnwCspc6h20GG8ygX-32" value="" style="edgeStyle=orthogonalEdgeStyle;rounded=0;orthogonalLoop=1;jettySize=auto;html=1;" edge="1" parent="1" source="9wTMnwCspc6h20GG8ygX-27" target="9wTMnwCspc6h20GG8ygX-30">
          <mxGeometry relative="1" as="geometry" />
        </mxCell>
        <mxCell id="9wTMnwCspc6h20GG8ygX-27" value="speler krijgt {x} kaarten" style="rounded=0;whiteSpace=wrap;html=1;" vertex="1" parent="1">
          <mxGeometry x="380" y="500" width="120" height="60" as="geometry" />
        </mxCell>
        <mxCell id="9wTMnwCspc6h20GG8ygX-45" value="" style="edgeStyle=orthogonalEdgeStyle;rounded=0;orthogonalLoop=1;jettySize=auto;html=1;" edge="1" parent="1" source="9wTMnwCspc6h20GG8ygX-30" target="9wTMnwCspc6h20GG8ygX-37">
          <mxGeometry relative="1" as="geometry" />
        </mxCell>
        <mxCell id="9wTMnwCspc6h20GG8ygX-49" value="" style="edgeStyle=orthogonalEdgeStyle;rounded=0;orthogonalLoop=1;jettySize=auto;html=1;" edge="1" parent="1" source="9wTMnwCspc6h20GG8ygX-30" target="9wTMnwCspc6h20GG8ygX-48">
          <mxGeometry relative="1" as="geometry" />
        </mxCell>
        <mxCell id="9wTMnwCspc6h20GG8ygX-30" value="elke speler 7 kaarten" style="rhombus;whiteSpace=wrap;html=1;" vertex="1" parent="1">
          <mxGeometry x="400" y="580" width="80" height="80" as="geometry" />
        </mxCell>
        <mxCell id="9wTMnwCspc6h20GG8ygX-31" value="input" style="shape=parallelogram;perimeter=parallelogramPerimeter;whiteSpace=wrap;html=1;fixedSize=1;" vertex="1" parent="1">
          <mxGeometry x="10" y="190" width="120" height="60" as="geometry" />
        </mxCell>
        <mxCell id="9wTMnwCspc6h20GG8ygX-44" value="" style="edgeStyle=orthogonalEdgeStyle;rounded=0;orthogonalLoop=1;jettySize=auto;html=1;" edge="1" parent="1" source="9wTMnwCspc6h20GG8ygX-37" target="9wTMnwCspc6h20GG8ygX-27">
          <mxGeometry relative="1" as="geometry">
            <Array as="points">
              <mxPoint x="270" y="520" />
            </Array>
          </mxGeometry>
        </mxCell>
        <mxCell id="9wTMnwCspc6h20GG8ygX-37" value="selecteer volgende speler" style="rounded=0;whiteSpace=wrap;html=1;" vertex="1" parent="1">
          <mxGeometry x="210" y="590" width="120" height="60" as="geometry" />
        </mxCell>
        <mxCell id="9wTMnwCspc6h20GG8ygX-46" value="start spelen" style="ellipse;whiteSpace=wrap;html=1;aspect=fixed;" vertex="1" parent="1">
          <mxGeometry x="400" y="910" width="80" height="80" as="geometry" />
        </mxCell>
        <mxCell id="9wTMnwCspc6h20GG8ygX-115" value="" style="edgeStyle=orthogonalEdgeStyle;rounded=0;orthogonalLoop=1;jettySize=auto;html=1;" edge="1" parent="1" source="9wTMnwCspc6h20GG8ygX-47" target="9wTMnwCspc6h20GG8ygX-114">
          <mxGeometry relative="1" as="geometry" />
        </mxCell>
        <mxCell id="9wTMnwCspc6h20GG8ygX-47" value="start spelen" style="ellipse;whiteSpace=wrap;html=1;aspect=fixed;" vertex="1" parent="1">
          <mxGeometry x="920" y="-110" width="80" height="80" as="geometry" />
        </mxCell>
        <mxCell id="9wTMnwCspc6h20GG8ygX-52" value="" style="edgeStyle=orthogonalEdgeStyle;rounded=0;orthogonalLoop=1;jettySize=auto;html=1;" edge="1" parent="1" source="9wTMnwCspc6h20GG8ygX-48" target="9wTMnwCspc6h20GG8ygX-51">
          <mxGeometry relative="1" as="geometry" />
        </mxCell>
        <mxCell id="9wTMnwCspc6h20GG8ygX-48" value="leg start kaart op tafel" style="rounded=0;whiteSpace=wrap;html=1;" vertex="1" parent="1">
          <mxGeometry x="380" y="680" width="120" height="60" as="geometry" />
        </mxCell>
        <mxCell id="9wTMnwCspc6h20GG8ygX-53" value="" style="edgeStyle=orthogonalEdgeStyle;rounded=0;orthogonalLoop=1;jettySize=auto;html=1;" edge="1" parent="1" source="9wTMnwCspc6h20GG8ygX-51" target="9wTMnwCspc6h20GG8ygX-46">
          <mxGeometry relative="1" as="geometry" />
        </mxCell>
        <mxCell id="9wTMnwCspc6h20GG8ygX-51" value="selecteer de start speler" style="rounded=0;whiteSpace=wrap;html=1;" vertex="1" parent="1">
          <mxGeometry x="380" y="800" width="120" height="60" as="geometry" />
        </mxCell>
        <mxCell id="9wTMnwCspc6h20GG8ygX-57" value="" style="edgeStyle=orthogonalEdgeStyle;rounded=0;orthogonalLoop=1;jettySize=auto;html=1;" edge="1" parent="1" source="9wTMnwCspc6h20GG8ygX-54" target="9wTMnwCspc6h20GG8ygX-56">
          <mxGeometry relative="1" as="geometry" />
        </mxCell>
        <mxCell id="9wTMnwCspc6h20GG8ygX-54" value="speler controleert of hij kan" style="rounded=0;whiteSpace=wrap;html=1;" vertex="1" parent="1">
          <mxGeometry x="900" y="130" width="120" height="60" as="geometry" />
        </mxCell>
        <mxCell id="9wTMnwCspc6h20GG8ygX-71" value="" style="edgeStyle=orthogonalEdgeStyle;rounded=0;orthogonalLoop=1;jettySize=auto;html=1;" edge="1" parent="1" source="9wTMnwCspc6h20GG8ygX-56" target="9wTMnwCspc6h20GG8ygX-70">
          <mxGeometry relative="1" as="geometry" />
        </mxCell>
        <mxCell id="9wTMnwCspc6h20GG8ygX-95" style="edgeStyle=orthogonalEdgeStyle;rounded=0;orthogonalLoop=1;jettySize=auto;html=1;entryX=0.5;entryY=0;entryDx=0;entryDy=0;" edge="1" parent="1" source="9wTMnwCspc6h20GG8ygX-56" target="9wTMnwCspc6h20GG8ygX-94">
          <mxGeometry relative="1" as="geometry" />
        </mxCell>
        <mxCell id="9wTMnwCspc6h20GG8ygX-56" value="speelbare kaart?" style="rhombus;whiteSpace=wrap;html=1;" vertex="1" parent="1">
          <mxGeometry x="920" y="240" width="80" height="80" as="geometry" />
        </mxCell>
        <mxCell id="9wTMnwCspc6h20GG8ygX-58" value="speler krijgt {x} kaarten" style="rounded=0;whiteSpace=wrap;html=1;" vertex="1" parent="1">
          <mxGeometry x="740" y="130" width="120" height="60" as="geometry" />
        </mxCell>
        <mxCell id="9wTMnwCspc6h20GG8ygX-62" value="" style="edgeStyle=orthogonalEdgeStyle;rounded=0;orthogonalLoop=1;jettySize=auto;html=1;" edge="1" parent="1" source="9wTMnwCspc6h20GG8ygX-60" target="9wTMnwCspc6h20GG8ygX-58">
          <mxGeometry relative="1" as="geometry" />
        </mxCell>
        <mxCell id="9wTMnwCspc6h20GG8ygX-60" value="x = 1" style="rounded=0;whiteSpace=wrap;html=1;" vertex="1" parent="1">
          <mxGeometry x="720" y="240" width="120" height="60" as="geometry" />
        </mxCell>
        <mxCell id="9wTMnwCspc6h20GG8ygX-67" style="edgeStyle=orthogonalEdgeStyle;rounded=0;orthogonalLoop=1;jettySize=auto;html=1;entryX=0.5;entryY=0;entryDx=0;entryDy=0;" edge="1" parent="1" source="9wTMnwCspc6h20GG8ygX-63" target="9wTMnwCspc6h20GG8ygX-27">
          <mxGeometry relative="1" as="geometry" />
        </mxCell>
        <mxCell id="9wTMnwCspc6h20GG8ygX-63" value="x = 7" style="rounded=0;whiteSpace=wrap;html=1;" vertex="1" parent="1">
          <mxGeometry x="380" y="410" width="120" height="60" as="geometry" />
        </mxCell>
        <mxCell id="9wTMnwCspc6h20GG8ygX-69" value="false" style="text;strokeColor=none;align=center;fillColor=none;html=1;verticalAlign=middle;whiteSpace=wrap;rounded=0;" vertex="1" parent="1">
          <mxGeometry x="860" y="240" width="60" height="30" as="geometry" />
        </mxCell>
        <mxCell id="9wTMnwCspc6h20GG8ygX-75" value="" style="edgeStyle=orthogonalEdgeStyle;rounded=0;orthogonalLoop=1;jettySize=auto;html=1;" edge="1" parent="1" source="9wTMnwCspc6h20GG8ygX-77" target="9wTMnwCspc6h20GG8ygX-74">
          <mxGeometry relative="1" as="geometry" />
        </mxCell>
        <mxCell id="9wTMnwCspc6h20GG8ygX-90" value="" style="edgeStyle=orthogonalEdgeStyle;rounded=0;orthogonalLoop=1;jettySize=auto;html=1;" edge="1" parent="1" source="9wTMnwCspc6h20GG8ygX-70" target="9wTMnwCspc6h20GG8ygX-89">
          <mxGeometry relative="1" as="geometry" />
        </mxCell>
        <mxCell id="9wTMnwCspc6h20GG8ygX-70" value="speel kaart" style="rounded=0;whiteSpace=wrap;html=1;" vertex="1" parent="1">
          <mxGeometry x="900" y="390" width="120" height="60" as="geometry" />
        </mxCell>
        <mxCell id="9wTMnwCspc6h20GG8ygX-72" value="true" style="text;strokeColor=none;align=center;fillColor=none;html=1;verticalAlign=middle;whiteSpace=wrap;rounded=0;" vertex="1" parent="1">
          <mxGeometry x="950" y="335" width="60" height="30" as="geometry" />
        </mxCell>
        <mxCell id="9wTMnwCspc6h20GG8ygX-118" style="edgeStyle=orthogonalEdgeStyle;rounded=0;orthogonalLoop=1;jettySize=auto;html=1;entryX=0.865;entryY=0.652;entryDx=0;entryDy=0;entryPerimeter=0;" edge="1" parent="1" source="9wTMnwCspc6h20GG8ygX-74" target="9wTMnwCspc6h20GG8ygX-114">
          <mxGeometry relative="1" as="geometry">
            <mxPoint x="1020" y="70" as="targetPoint" />
            <Array as="points">
              <mxPoint x="1110" y="52" />
            </Array>
          </mxGeometry>
        </mxCell>
        <mxCell id="9wTMnwCspc6h20GG8ygX-74" value="selecteer volgende speler" style="rounded=0;whiteSpace=wrap;html=1;" vertex="1" parent="1">
          <mxGeometry x="1050" y="150" width="120" height="60" as="geometry" />
        </mxCell>
        <mxCell id="9wTMnwCspc6h20GG8ygX-123" style="edgeStyle=orthogonalEdgeStyle;rounded=0;orthogonalLoop=1;jettySize=auto;html=1;entryX=0.5;entryY=1;entryDx=0;entryDy=0;" edge="1" parent="1" source="9wTMnwCspc6h20GG8ygX-77" target="9wTMnwCspc6h20GG8ygX-124">
          <mxGeometry relative="1" as="geometry">
            <mxPoint x="1280" y="360" as="targetPoint" />
            <Array as="points">
              <mxPoint x="1280" y="400" />
            </Array>
          </mxGeometry>
        </mxCell>
        <mxCell id="9wTMnwCspc6h20GG8ygX-77" value="speler heeft geen kaarten" style="rhombus;whiteSpace=wrap;html=1;" vertex="1" parent="1">
          <mxGeometry x="1070" y="380" width="80" height="80" as="geometry" />
        </mxCell>
        <mxCell id="9wTMnwCspc6h20GG8ygX-79" value="False" style="text;strokeColor=none;align=center;fillColor=none;html=1;verticalAlign=middle;whiteSpace=wrap;rounded=0;" vertex="1" parent="1">
          <mxGeometry x="1100" y="280" width="60" height="30" as="geometry" />
        </mxCell>
        <mxCell id="9wTMnwCspc6h20GG8ygX-80" value="einde spel" style="ellipse;whiteSpace=wrap;html=1;aspect=fixed;" vertex="1" parent="1">
          <mxGeometry x="1350" y="360" width="80" height="80" as="geometry" />
        </mxCell>
        <mxCell id="9wTMnwCspc6h20GG8ygX-84" value="" style="edgeStyle=orthogonalEdgeStyle;rounded=0;orthogonalLoop=1;jettySize=auto;html=1;" edge="1" parent="1" source="9wTMnwCspc6h20GG8ygX-82" target="9wTMnwCspc6h20GG8ygX-83">
          <mxGeometry relative="1" as="geometry" />
        </mxCell>
        <mxCell id="9wTMnwCspc6h20GG8ygX-82" value="einde spel" style="ellipse;whiteSpace=wrap;html=1;aspect=fixed;" vertex="1" parent="1">
          <mxGeometry x="80" y="720" width="80" height="80" as="geometry" />
        </mxCell>
        <mxCell id="9wTMnwCspc6h20GG8ygX-86" value="" style="edgeStyle=orthogonalEdgeStyle;rounded=0;orthogonalLoop=1;jettySize=auto;html=1;" edge="1" parent="1" source="9wTMnwCspc6h20GG8ygX-83" target="9wTMnwCspc6h20GG8ygX-85">
          <mxGeometry relative="1" as="geometry" />
        </mxCell>
        <mxCell id="9wTMnwCspc6h20GG8ygX-83" value="bereken score" style="rounded=0;whiteSpace=wrap;html=1;" vertex="1" parent="1">
          <mxGeometry x="60" y="840" width="120" height="60" as="geometry" />
        </mxCell>
        <mxCell id="9wTMnwCspc6h20GG8ygX-88" value="" style="edgeStyle=orthogonalEdgeStyle;rounded=0;orthogonalLoop=1;jettySize=auto;html=1;" edge="1" parent="1" source="9wTMnwCspc6h20GG8ygX-85" target="9wTMnwCspc6h20GG8ygX-9">
          <mxGeometry relative="1" as="geometry" />
        </mxCell>
        <mxCell id="9wTMnwCspc6h20GG8ygX-85" value="feliciteer winaar" style="rounded=0;whiteSpace=wrap;html=1;" vertex="1" parent="1">
          <mxGeometry x="60" y="940" width="120" height="60" as="geometry" />
        </mxCell>
        <mxCell id="9wTMnwCspc6h20GG8ygX-91" value="" style="edgeStyle=orthogonalEdgeStyle;rounded=0;orthogonalLoop=1;jettySize=auto;html=1;entryX=0;entryY=0.5;entryDx=0;entryDy=0;" edge="1" parent="1" source="9wTMnwCspc6h20GG8ygX-89" target="9wTMnwCspc6h20GG8ygX-77">
          <mxGeometry relative="1" as="geometry" />
        </mxCell>
        <mxCell id="9wTMnwCspc6h20GG8ygX-101" value="" style="edgeStyle=orthogonalEdgeStyle;rounded=0;orthogonalLoop=1;jettySize=auto;html=1;entryX=0.5;entryY=0;entryDx=0;entryDy=0;" edge="1" parent="1" source="9wTMnwCspc6h20GG8ygX-89" target="9wTMnwCspc6h20GG8ygX-100">
          <mxGeometry relative="1" as="geometry">
            <Array as="points">
              <mxPoint x="980" y="610" />
              <mxPoint x="1090" y="610" />
            </Array>
          </mxGeometry>
        </mxCell>
        <mxCell id="9wTMnwCspc6h20GG8ygX-107" style="edgeStyle=orthogonalEdgeStyle;rounded=0;orthogonalLoop=1;jettySize=auto;html=1;entryX=0.5;entryY=0;entryDx=0;entryDy=0;" edge="1" parent="1" source="9wTMnwCspc6h20GG8ygX-89" target="9wTMnwCspc6h20GG8ygX-106">
          <mxGeometry relative="1" as="geometry" />
        </mxCell>
        <mxCell id="9wTMnwCspc6h20GG8ygX-110" style="edgeStyle=orthogonalEdgeStyle;rounded=0;orthogonalLoop=1;jettySize=auto;html=1;exitX=0;exitY=1;exitDx=0;exitDy=0;entryX=0.5;entryY=0;entryDx=0;entryDy=0;" edge="1" parent="1" source="9wTMnwCspc6h20GG8ygX-89" target="9wTMnwCspc6h20GG8ygX-109">
          <mxGeometry relative="1" as="geometry" />
        </mxCell>
        <mxCell id="9wTMnwCspc6h20GG8ygX-89" value="pest kaart?" style="rhombus;whiteSpace=wrap;html=1;" vertex="1" parent="1">
          <mxGeometry x="920" y="510" width="80" height="80" as="geometry" />
        </mxCell>
        <mxCell id="9wTMnwCspc6h20GG8ygX-97" value="" style="edgeStyle=orthogonalEdgeStyle;rounded=0;orthogonalLoop=1;jettySize=auto;html=1;entryX=0.5;entryY=1;entryDx=0;entryDy=0;" edge="1" parent="1" source="9wTMnwCspc6h20GG8ygX-94" target="9wTMnwCspc6h20GG8ygX-96">
          <mxGeometry relative="1" as="geometry">
            <Array as="points">
              <mxPoint x="870" y="420" />
              <mxPoint x="670" y="420" />
            </Array>
          </mxGeometry>
        </mxCell>
        <mxCell id="9wTMnwCspc6h20GG8ygX-99" style="edgeStyle=orthogonalEdgeStyle;rounded=0;orthogonalLoop=1;jettySize=auto;html=1;entryX=0.5;entryY=1;entryDx=0;entryDy=0;" edge="1" parent="1" source="9wTMnwCspc6h20GG8ygX-94" target="9wTMnwCspc6h20GG8ygX-60">
          <mxGeometry relative="1" as="geometry">
            <Array as="points">
              <mxPoint x="780" y="340" />
            </Array>
          </mxGeometry>
        </mxCell>
        <mxCell id="9wTMnwCspc6h20GG8ygX-94" value="vorige kaart draw?" style="rhombus;whiteSpace=wrap;html=1;" vertex="1" parent="1">
          <mxGeometry x="830" y="300" width="80" height="80" as="geometry" />
        </mxCell>
        <mxCell id="9wTMnwCspc6h20GG8ygX-98" style="edgeStyle=orthogonalEdgeStyle;rounded=0;orthogonalLoop=1;jettySize=auto;html=1;entryX=0;entryY=0.5;entryDx=0;entryDy=0;" edge="1" parent="1" source="9wTMnwCspc6h20GG8ygX-96" target="9wTMnwCspc6h20GG8ygX-58">
          <mxGeometry relative="1" as="geometry">
            <Array as="points">
              <mxPoint x="660" y="160" />
            </Array>
          </mxGeometry>
        </mxCell>
        <mxCell id="9wTMnwCspc6h20GG8ygX-96" value="x = totaal aantal draw kaarten" style="rounded=0;whiteSpace=wrap;html=1;" vertex="1" parent="1">
          <mxGeometry x="610" y="330" width="120" height="60" as="geometry" />
        </mxCell>
        <mxCell id="9wTMnwCspc6h20GG8ygX-105" style="edgeStyle=orthogonalEdgeStyle;rounded=0;orthogonalLoop=1;jettySize=auto;html=1;entryX=1;entryY=0.5;entryDx=0;entryDy=0;" edge="1" parent="1" source="9wTMnwCspc6h20GG8ygX-100" target="9wTMnwCspc6h20GG8ygX-77">
          <mxGeometry relative="1" as="geometry">
            <mxPoint x="1210" y="420" as="targetPoint" />
            <Array as="points">
              <mxPoint x="1190" y="680" />
              <mxPoint x="1190" y="420" />
            </Array>
          </mxGeometry>
        </mxCell>
        <mxCell id="9wTMnwCspc6h20GG8ygX-100" value="kleur" style="shape=parallelogram;perimeter=parallelogramPerimeter;whiteSpace=wrap;html=1;fixedSize=1;" vertex="1" parent="1">
          <mxGeometry x="1030" y="650" width="120" height="60" as="geometry" />
        </mxCell>
        <mxCell id="9wTMnwCspc6h20GG8ygX-102" value="color change" style="text;strokeColor=none;align=center;fillColor=none;html=1;verticalAlign=middle;whiteSpace=wrap;rounded=0;" vertex="1" parent="1">
          <mxGeometry x="970" y="570" width="60" height="30" as="geometry" />
        </mxCell>
        <mxCell id="9wTMnwCspc6h20GG8ygX-108" style="edgeStyle=orthogonalEdgeStyle;rounded=0;orthogonalLoop=1;jettySize=auto;html=1;" edge="1" parent="1" source="9wTMnwCspc6h20GG8ygX-106">
          <mxGeometry relative="1" as="geometry">
            <mxPoint x="1190" y="680" as="targetPoint" />
            <Array as="points">
              <mxPoint x="930" y="750" />
              <mxPoint x="1190" y="750" />
            </Array>
          </mxGeometry>
        </mxCell>
        <mxCell id="9wTMnwCspc6h20GG8ygX-106" value="geef kaarten door" style="rounded=0;whiteSpace=wrap;html=1;" vertex="1" parent="1">
          <mxGeometry x="870" y="650" width="120" height="60" as="geometry" />
        </mxCell>
        <mxCell id="9wTMnwCspc6h20GG8ygX-111" style="edgeStyle=orthogonalEdgeStyle;rounded=0;orthogonalLoop=1;jettySize=auto;html=1;" edge="1" parent="1" source="9wTMnwCspc6h20GG8ygX-109">
          <mxGeometry relative="1" as="geometry">
            <mxPoint x="930" y="750" as="targetPoint" />
            <Array as="points">
              <mxPoint x="790" y="750" />
            </Array>
          </mxGeometry>
        </mxCell>
        <mxCell id="9wTMnwCspc6h20GG8ygX-109" value="geef kaarten door" style="rounded=0;whiteSpace=wrap;html=1;" vertex="1" parent="1">
          <mxGeometry x="730" y="650" width="120" height="60" as="geometry" />
        </mxCell>
        <mxCell id="9wTMnwCspc6h20GG8ygX-112" value="reverse" style="text;strokeColor=none;align=center;fillColor=none;html=1;verticalAlign=middle;whiteSpace=wrap;rounded=0;" vertex="1" parent="1">
          <mxGeometry x="840" y="550" width="60" height="30" as="geometry" />
        </mxCell>
        <mxCell id="9wTMnwCspc6h20GG8ygX-113" value="switch" style="text;strokeColor=none;align=center;fillColor=none;html=1;verticalAlign=middle;whiteSpace=wrap;rounded=0;" vertex="1" parent="1">
          <mxGeometry x="910" y="580" width="60" height="30" as="geometry" />
        </mxCell>
        <mxCell id="9wTMnwCspc6h20GG8ygX-116" value="" style="edgeStyle=orthogonalEdgeStyle;rounded=0;orthogonalLoop=1;jettySize=auto;html=1;" edge="1" parent="1" source="9wTMnwCspc6h20GG8ygX-114" target="9wTMnwCspc6h20GG8ygX-54">
          <mxGeometry relative="1" as="geometry" />
        </mxCell>
        <mxCell id="9wTMnwCspc6h20GG8ygX-119" style="edgeStyle=orthogonalEdgeStyle;rounded=0;orthogonalLoop=1;jettySize=auto;html=1;entryX=1;entryY=0.5;entryDx=0;entryDy=0;" edge="1" parent="1" source="9wTMnwCspc6h20GG8ygX-114" target="9wTMnwCspc6h20GG8ygX-74">
          <mxGeometry relative="1" as="geometry">
            <Array as="points">
              <mxPoint x="1190" y="30" />
              <mxPoint x="1190" y="180" />
            </Array>
          </mxGeometry>
        </mxCell>
        <mxCell id="9wTMnwCspc6h20GG8ygX-114" value="skip kaart als laatste&amp;nbsp; gespeeld" style="rhombus;whiteSpace=wrap;html=1;" vertex="1" parent="1">
          <mxGeometry x="920" width="80" height="80" as="geometry" />
        </mxCell>
        <mxCell id="9wTMnwCspc6h20GG8ygX-117" value="false" style="text;strokeColor=none;align=center;fillColor=none;html=1;verticalAlign=middle;whiteSpace=wrap;rounded=0;" vertex="1" parent="1">
          <mxGeometry x="950" y="80" width="60" height="30" as="geometry" />
        </mxCell>
        <mxCell id="9wTMnwCspc6h20GG8ygX-121" value="true" style="text;strokeColor=none;align=center;fillColor=none;html=1;verticalAlign=middle;whiteSpace=wrap;rounded=0;" vertex="1" parent="1">
          <mxGeometry x="1150" y="365" width="60" height="30" as="geometry" />
        </mxCell>
        <mxCell id="9wTMnwCspc6h20GG8ygX-125" style="edgeStyle=orthogonalEdgeStyle;rounded=0;orthogonalLoop=1;jettySize=auto;html=1;entryX=0.5;entryY=0;entryDx=0;entryDy=0;" edge="1" parent="1" source="9wTMnwCspc6h20GG8ygX-124" target="9wTMnwCspc6h20GG8ygX-58">
          <mxGeometry relative="1" as="geometry">
            <mxPoint x="1260" y="-140" as="targetPoint" />
            <Array as="points">
              <mxPoint x="1281" y="-140" />
              <mxPoint x="800" y="-140" />
            </Array>
          </mxGeometry>
        </mxCell>
        <mxCell id="9wTMnwCspc6h20GG8ygX-126" style="edgeStyle=orthogonalEdgeStyle;rounded=0;orthogonalLoop=1;jettySize=auto;html=1;entryX=0.5;entryY=0;entryDx=0;entryDy=0;" edge="1" parent="1" source="9wTMnwCspc6h20GG8ygX-124" target="9wTMnwCspc6h20GG8ygX-80">
          <mxGeometry relative="1" as="geometry" />
        </mxCell>
        <mxCell id="9wTMnwCspc6h20GG8ygX-124" value="pest kaart?" style="rhombus;whiteSpace=wrap;html=1;" vertex="1" parent="1">
          <mxGeometry x="1241" y="260" width="80" height="80" as="geometry" />
        </mxCell>
        <mxCell id="9wTMnwCspc6h20GG8ygX-127" value="false" style="text;strokeColor=none;align=center;fillColor=none;html=1;verticalAlign=middle;whiteSpace=wrap;rounded=0;" vertex="1" parent="1">
          <mxGeometry x="1330" y="280" width="60" height="30" as="geometry" />
        </mxCell>
        <mxCell id="9wTMnwCspc6h20GG8ygX-128" value="true" style="text;strokeColor=none;align=center;fillColor=none;html=1;verticalAlign=middle;whiteSpace=wrap;rounded=0;" vertex="1" parent="1">
          <mxGeometry x="1270" y="120" width="60" height="30" as="geometry" />
        </mxCell>
      </root>
    </mxGraphModel>
  </diagram>
</mxfile>
